# xmcd
#
# Track frame offsets: 
#        150
#        20457
#        43830
#        63357
#        79967
#        101035
#        115565
#        138947
#        155032
#        178360
#        198767
#        210915
#
# Disc length: 3047 seconds
#
# Revision: 2
# Processed by: cddbd v1.5.2PL0 Copyright (c) Steve Scherf et al.
# Submitted via: ExactAudioCopy v1.3
#
DISCID=a10be50c
DTITLE=Various Artist - Perfume Da Bossa Twilight Time
DYEAR=2003
DGENRE=JPop
TTITLE0=アナ・マルチンス - 小さな日記
TTITLE1=カルテート・エン・シー - 精霊流し
TTITLE2=タチアーナ - 海岸通
TTITLE3=ジョニー・アルフ - シクラメンのかほり
TTITLE4=ワンダ・サー - 私は泣いています
TTITLE5=カルロス・リラ  - 心もよう
TTITLE6=マリア・クレウザ - 卒業写真
TTITLE7=アナ・マルチンス - 長い髪の少女
TTITLE8=ベナ・ロボ - 酒と泪と男と女
TTITLE9=タチアーナ - 22才の別れ
TTITLE10=ジョニー・アルフ - いっそセレナーデ
TTITLE11=アナ・マルチンス - 白いブランコ
EXTD=
EXTT0=
EXTT1=
EXTT2=
EXTT3=
EXTT4=
EXTT5=
EXTT6=
EXTT7=
EXTT8=
EXTT9=
EXTT10=
EXTT11=
PLAYORDER=
